<?xml version="1.0" encoding="utf-8"?>
<!-- Generator: Adobe Illustrator 16.0.0, SVG Export Plug-In . SVG Version: 6.00 Build 0)  -->
<!DOCTYPE svg PUBLIC "-//W3C//DTD SVG 1.1//EN" "http://www.w3.org/Graphics/SVG/1.1/DTD/svg11.dtd">
<svg version="1.1" id="Capa_1" xmlns="http://www.w3.org/2000/svg" xmlns:xlink="http://www.w3.org/1999/xlink" x="0px" y="0px"
	 width="475.859px" height="138.979px" viewBox="0 0 475.859 138.979" enable-background="new 0 0 475.859 138.979"
	 xml:space="preserve">
<g>
	<g>
		<g>
			<path fill="#742C87" d="M175.24,42.536l-15.303,37.736h-5.53L139.1,42.536h4.905c0.539,0,0.976,0.138,1.306,0.406
				c0.333,0.271,0.592,0.614,0.763,1.012l9.723,24.605c0.526,1.385,1.004,2.977,1.438,4.773c0.193-0.89,0.403-1.735,0.621-2.542
				c0.217-0.803,0.458-1.548,0.716-2.231l9.703-24.605c0.138-0.351,0.382-0.675,0.73-0.973c0.351-0.3,0.785-0.445,1.311-0.445
				H175.24z"/>
			<path fill="#742C87" d="M203.208,75.321l-0.024,4.951H179.65V42.536h23.533v4.956h-17.376v11.371h13.892v4.802h-13.892v11.656
				H203.208z"/>
			<path fill="#742C87" d="M235.81,47.647h-11.765v32.625h-6.111V47.647h-11.792v-5.111h29.668V47.647z"/>
			<path fill="#742C87" d="M264.619,75.321l-0.031,4.951h-23.537V42.536h23.537v4.956h-17.371v11.371h13.887v4.802h-13.887v11.656
				H264.619z"/>
			<path fill="#742C87" d="M299.971,80.272h-5.473c-1.086,0-1.872-0.414-2.361-1.249l-8.809-12.715
				c-0.298-0.432-0.622-0.752-0.971-0.943c-0.349-0.19-0.875-0.293-1.571-0.293h-3.406v15.2h-6.133V42.536h11.11
				c2.483,0,4.618,0.252,6.411,0.756c1.79,0.508,3.261,1.227,4.418,2.17c1.153,0.934,2.004,2.049,2.552,3.367
				c0.552,1.306,0.828,2.77,0.828,4.37c0,1.319-0.195,2.542-0.592,3.669c-0.395,1.142-0.96,2.174-1.705,3.1
				c-0.738,0.922-1.652,1.723-2.735,2.411c-1.083,0.68-2.319,1.214-3.697,1.596c0.752,0.456,1.396,1.091,1.941,1.911L299.971,80.272
				z M282.201,60.621c1.398,0,2.624-0.171,3.672-0.513c1.045-0.337,1.918-0.811,2.617-1.425c0.703-0.614,1.229-1.337,1.575-2.188
				c0.351-0.85,0.522-1.791,0.522-2.823c0-2.056-0.68-3.63-2.045-4.717c-1.361-1.079-3.424-1.622-6.186-1.622h-4.978v13.287H282.201
				z"/>
			<path fill="#742C87" d="M310.69,80.272h-6.159V42.536h6.159V80.272z"/>
			<path fill="#742C87" d="M350.896,42.536v37.736h-3.125c-0.465,0-0.873-0.079-1.201-0.25c-0.331-0.162-0.645-0.434-0.942-0.819
				l-20.734-26.631c0.057,0.513,0.099,1.008,0.122,1.508c0.026,0.495,0.04,0.958,0.04,1.376v24.815h-5.403V42.536h3.2
				c0.266,0,0.48,0.013,0.669,0.04c0.182,0.028,0.351,0.072,0.513,0.145c0.153,0.068,0.303,0.175,0.44,0.309
				c0.143,0.145,0.289,0.32,0.449,0.528l20.757,26.652c-0.053-0.537-0.093-1.074-0.116-1.591c-0.029-0.531-0.04-1.02-0.04-1.473
				V42.536H350.896z"/>
			<path fill="#742C87" d="M391.467,80.272h-4.743c-0.546,0-0.978-0.134-1.313-0.403c-0.333-0.268-0.586-0.601-0.759-1.006
				l-3.143-8.336h-16.253l-3.143,8.336c-0.141,0.353-0.386,0.673-0.736,0.971c-0.349,0.294-0.78,0.438-1.315,0.438h-4.738
				l14.968-37.736h6.211L391.467,80.272z M379.854,66.122l-5.186-13.786c-0.423-1.065-0.846-2.42-1.284-4.06
				c-0.193,0.82-0.403,1.578-0.627,2.267c-0.234,0.688-0.443,1.295-0.634,1.828l-5.188,13.751H379.854z"/>
			<path fill="#742C87" d="M424.594,80.272h-5.476c-1.083,0-1.872-0.414-2.362-1.249l-8.807-12.715
				c-0.292-0.432-0.618-0.752-0.972-0.943c-0.344-0.19-0.87-0.293-1.566-0.293h-3.408v15.2h-6.133V42.536h11.107
				c2.483,0,4.621,0.252,6.411,0.756c1.795,0.508,3.262,1.227,4.421,2.17c1.146,0.934,2.001,2.049,2.554,3.367
				c0.548,1.306,0.824,2.77,0.824,4.37c0,1.319-0.202,2.542-0.59,3.669c-0.393,1.142-0.962,2.174-1.703,3.1
				c-0.74,0.922-1.657,1.723-2.742,2.411c-1.084,0.68-2.312,1.214-3.692,1.596c0.749,0.456,1.398,1.091,1.939,1.911L424.594,80.272z
				 M406.827,60.621c1.394,0,2.619-0.171,3.669-0.513c1.047-0.337,1.924-0.811,2.617-1.425c0.701-0.614,1.223-1.337,1.573-2.188
				c0.349-0.85,0.523-1.791,0.523-2.823c0-2.056-0.679-3.63-2.04-4.717c-1.368-1.079-3.424-1.622-6.192-1.622h-4.975v13.287H406.827
				z"/>
			<path fill="#742C87" d="M435.317,80.272h-6.161V42.536h6.161V80.272z"/>
			<path fill="#742C87" d="M475.859,80.272h-4.745c-0.542,0-0.979-0.134-1.311-0.403c-0.333-0.268-0.588-0.601-0.759-1.006
				l-3.146-8.336H449.65l-3.144,8.336c-0.141,0.353-0.384,0.673-0.736,0.971c-0.351,0.294-0.78,0.438-1.311,0.438h-4.739
				l14.964-37.736h6.212L475.859,80.272z M464.247,66.122l-5.186-13.786c-0.423-1.065-0.846-2.42-1.286-4.06
				c-0.195,0.82-0.401,1.578-0.63,2.267c-0.232,0.688-0.438,1.295-0.629,1.828l-5.188,13.751H464.247z"/>
			<path fill="#BD8FC0" d="M164.467,108.073h15.58v18.489c-2.242,1.648-4.634,2.841-7.169,3.586
				c-2.534,0.734-5.188,1.109-7.954,1.109c-3.608,0-6.891-0.57-9.85-1.701c-2.954-1.131-5.49-2.695-7.592-4.69
				c-2.106-1.99-3.73-4.357-4.87-7.102c-1.148-2.732-1.718-5.705-1.718-8.916c0-3.264,0.542-6.267,1.626-9.002
				c1.083-2.741,2.632-5.1,4.646-7.083c2.012-1.984,4.452-3.527,7.305-4.634c2.865-1.103,6.049-1.655,9.58-1.655
				c1.824,0,3.538,0.154,5.142,0.452c1.602,0.3,3.082,0.71,4.436,1.236c1.355,0.521,2.591,1.14,3.711,1.865
				c1.125,0.721,2.128,1.501,3.009,2.343l-2.946,4.479c-0.464,0.704-1.056,1.132-1.791,1.298c-0.73,0.16-1.515-0.021-2.356-0.544
				c-0.811-0.478-1.565-0.9-2.277-1.249c-0.708-0.351-1.436-0.633-2.174-0.859c-0.746-0.215-1.526-0.381-2.348-0.473
				c-0.826-0.105-1.745-0.154-2.766-0.154c-1.907,0-3.623,0.336-5.148,1.009c-1.519,0.671-2.821,1.617-3.89,2.841
				c-1.072,1.219-1.896,2.687-2.477,4.405c-0.587,1.714-0.876,3.625-0.876,5.725c0,2.323,0.32,4.393,0.966,6.196
				c0.636,1.806,1.545,3.329,2.72,4.57c1.17,1.24,2.573,2.191,4.208,2.849c1.633,0.645,3.441,0.972,5.429,0.972
				c1.216,0,2.33-0.119,3.321-0.359c0.993-0.239,1.961-0.563,2.904-0.967v-6.639h-4.329c-0.645,0-1.144-0.178-1.508-0.518
				c-0.36-0.34-0.544-0.77-0.544-1.291V108.073z"/>
			<path fill="#BD8FC0" d="M205.158,122.745c1.368,0,2.588-0.232,3.658-0.68c1.074-0.447,1.972-1.096,2.718-1.934
				c0.741-0.842,1.311-1.867,1.696-3.09c0.395-1.206,0.592-2.582,0.592-4.132V86.957h10.166v25.953c0,2.689-0.438,5.153-1.315,7.401
				c-0.868,2.247-2.115,4.183-3.739,5.807c-1.626,1.619-3.599,2.882-5.922,3.785c-2.328,0.903-4.947,1.354-7.853,1.354
				c-2.926,0-5.552-0.451-7.875-1.354c-2.324-0.903-4.301-2.166-5.927-3.785c-1.622-1.624-2.867-3.56-3.73-5.807
				c-0.861-2.248-1.289-4.712-1.289-7.401V86.957h10.161v25.92c0,1.548,0.197,2.927,0.59,4.139c0.386,1.214,0.956,2.248,1.699,3.099
				c0.743,0.853,1.644,1.504,2.718,1.951C202.574,122.513,203.792,122.745,205.158,122.745z"/>
			<path fill="#BD8FC0" d="M268.275,130.78h-7.871c-0.879,0-1.594-0.206-2.137-0.623c-0.539-0.407-0.951-0.938-1.232-1.582
				l-2.586-7.634h-16.662l-2.586,7.634c-0.219,0.567-0.613,1.073-1.183,1.525c-0.579,0.451-1.285,0.68-2.122,0.68h-7.938
				l16.962-43.823h10.404L268.275,130.78z M252.135,114.023l-4.062-12.004c-0.3-0.754-0.625-1.657-0.958-2.684
				c-0.346-1.038-0.684-2.154-1.03-3.353c-0.298,1.218-0.618,2.354-0.96,3.401c-0.342,1.037-0.657,1.938-0.96,2.7l-4.032,11.938
				H252.135z"/>
			<path fill="#BD8FC0" d="M285.305,114.118v16.662H275.14v-16.662l-15.88-27.161h8.963c0.881,0,1.578,0.211,2.091,0.623
				c0.511,0.405,0.934,0.934,1.277,1.578l6.192,12.747c0.523,1.004,0.99,1.939,1.416,2.814c0.423,0.868,0.793,1.727,1.113,2.568
				c0.303-0.863,0.648-1.729,1.036-2.604c0.397-0.868,0.849-1.798,1.37-2.779l6.133-12.747c0.143-0.268,0.312-0.526,0.509-0.785
				c0.203-0.259,0.442-0.497,0.71-0.706c0.271-0.215,0.581-0.381,0.934-0.513c0.351-0.131,0.738-0.197,1.157-0.197h9.021
				L285.305,114.118z"/>
			<path fill="#BD8FC0" d="M336.492,130.78h-7.886c-0.882,0-1.592-0.206-2.135-0.623c-0.539-0.407-0.951-0.938-1.232-1.582
				l-2.584-7.634h-16.659l-2.589,7.634c-0.222,0.567-0.616,1.073-1.186,1.525c-0.57,0.451-1.28,0.68-2.122,0.68h-7.938l16.96-43.823
				h10.406L336.492,130.78z M320.339,114.023l-4.06-12.004c-0.3-0.754-0.622-1.657-0.96-2.684c-0.349-1.038-0.684-2.154-1.027-3.353
				c-0.301,1.218-0.623,2.354-0.958,3.401c-0.342,1.037-0.662,1.938-0.967,2.7l-4.026,11.938H320.339z"/>
			<path fill="#BD8FC0" d="M382.801,138.979h-8.355c-1.21,0-2.288-0.147-3.237-0.458c-0.953-0.315-1.846-0.895-2.663-1.734
				l-5.444-6.1c-1.705,0.38-3.535,0.57-5.501,0.57c-3.408,0-6.515-0.57-9.324-1.719c-2.806-1.14-5.205-2.722-7.195-4.734
				c-2.002-2.016-3.54-4.388-4.634-7.109c-1.099-2.729-1.646-5.673-1.646-8.847c0-3.165,0.548-6.117,1.646-8.837
				c1.094-2.731,2.632-5.094,4.634-7.098c1.99-2.007,4.39-3.576,7.195-4.721c2.81-1.148,5.916-1.719,9.324-1.719
				c3.405,0,6.509,0.581,9.306,1.734c2.802,1.152,5.192,2.732,7.176,4.738c1.981,2.001,3.522,4.368,4.616,7.095
				c1.092,2.723,1.635,5.661,1.635,8.807c0,1.885-0.188,3.695-0.587,5.429c-0.388,1.741-0.947,3.365-1.677,4.886
				c-0.734,1.523-1.642,2.941-2.711,4.246c-1.074,1.302-2.291,2.454-3.656,3.452L382.801,138.979z M345.207,108.849
				c0,2.189,0.28,4.147,0.842,5.883c0.563,1.736,1.372,3.204,2.424,4.405c1.048,1.206,2.345,2.122,3.875,2.749
				c1.536,0.627,3.288,0.951,5.252,0.951c1.946,0,3.68-0.324,5.203-0.951c1.521-0.627,2.814-1.543,3.864-2.749
				c1.05-1.201,1.856-2.669,2.419-4.405c0.56-1.735,0.844-3.693,0.844-5.883c0-2.165-0.284-4.111-0.844-5.843
				c-0.563-1.74-1.369-3.205-2.419-4.406c-1.05-1.205-2.344-2.13-3.864-2.77c-1.523-0.639-3.257-0.961-5.203-0.961
				c-1.964,0-3.716,0.322-5.252,0.961c-1.53,0.64-2.827,1.564-3.875,2.77c-1.052,1.201-1.861,2.666-2.424,4.406
				C345.487,104.737,345.207,106.684,345.207,108.849z"/>
			<path fill="#BD8FC0" d="M404.603,122.745c1.365,0,2.579-0.232,3.651-0.68c1.08-0.447,1.979-1.096,2.725-1.934
				c0.738-0.842,1.308-1.867,1.696-3.09c0.395-1.206,0.587-2.582,0.587-4.132V86.957h10.163v25.953c0,2.689-0.432,5.153-1.302,7.401
				c-0.874,2.247-2.121,4.183-3.745,5.807c-1.629,1.619-3.6,2.882-5.927,3.785c-2.326,0.903-4.942,1.354-7.849,1.354
				c-2.927,0-5.552-0.451-7.876-1.354c-2.329-0.903-4.307-2.166-5.926-3.785c-1.622-1.624-2.867-3.56-3.73-5.807
				c-0.861-2.248-1.294-4.712-1.294-7.401V86.957h10.166v25.92c0,1.548,0.197,2.927,0.587,4.139
				c0.389,1.214,0.958,2.248,1.701,3.099c0.736,0.853,1.648,1.504,2.718,1.951C402.026,122.513,403.234,122.745,404.603,122.745z"/>
			<path fill="#BD8FC0" d="M441.293,130.78H431.07V86.957h10.223V130.78z"/>
			<path fill="#BD8FC0" d="M475.271,122.65v8.13h-26.399V86.957h10.159v35.693H475.271z"/>
		</g>
	</g>
	<g>
		<path fill="#BD8FC0" d="M23.327,86.646l9.103-31.819h27.215l6.034,10.477h21.083v9.103c0,12.239-12.342,12.16-12.342,12.16
			l-23.972,0.009l-6.216,21.902v8.357c0,12.228,12.224,12.228,12.224,12.228h30.201v-21.21V86.646l0,0h30.183
			c0,0,12.239-0.137,12.239-12.239v-30.19h-21.215H86.657V14.032c0-12.235-12.237-12.235-12.237-12.235H44.232v21.221v21.199H14.041
			c-12.322,0-12.243,12.226-12.243,12.226v30.203h21.214"/>
		<path fill="#742C87" d="M88.45,130.863H56.456c-4.844,0-14.019-2.938-14.019-14.027v-8.605l0.07-0.236l6.584-23.216l25.328-0.007
			c0.04,0,2.814-0.015,5.488-1.356c3.358-1.686,5.061-4.717,5.061-9.008v-7.302H64.64L58.6,56.619H33.784l-8.075,28.23h6.277
			c1.07,0,10.451-0.357,10.451-10.441V65.43h3.599v8.978c0,11.105-9.188,14.031-14.049,14.031H0V56.443
			c0-0.241,0.006-6.186,4.081-10.289c2.459-2.477,5.804-3.73,9.959-3.73h28.397V0H74.42c4.855,0,14.03,2.933,14.03,14.032v28.392
			h42.422v31.983c0,10.98-9.162,13.979-14.01,14.031H88.45V130.863z M46.036,108.727v8.109c0,10.314,9.997,10.433,10.42,10.433
			h28.401v-42.42h31.982c1.05-0.011,10.442-0.465,10.442-10.441V46.012H84.857v-31.98c0-10.08-9.368-10.429-10.442-10.433H46.036
			v42.413H14.041c-4.335,0-7.386,1.694-9.083,5.02c-1.346,2.637-1.363,5.374-1.363,5.403v28.414h18.38l9.1-31.82h29.606
			l6.037,10.476h21.848v10.903c0,4.09-1.247,7.395-3.7,9.834c-4.145,4.119-10.258,4.112-10.451,4.125h-22.61L46.036,108.727z"/>
		<g id="he_194_">
			<path fill="#742C87" d="M114.356,60.379c-1.466-1.468-3.833-1.468-5.282,0l-1.381,2.148l-1.394-2.148
				c-1.458-1.468-3.816-1.468-5.267,0c-1.462,1.456-1.462,3.814,0,5.269l0.649,0.658l6.012,5.278l5.988-5.278l0.675-0.658
				C115.805,64.193,115.805,61.835,114.356,60.379z"/>
		</g>
		<rect x="53.962" y="61.498" fill="#742C87" width="3.594" height="7.864"/>
	</g>
</g>
</svg>
