<?xml version="1.0" encoding="utf-8"?>
<!-- Generator: Adobe Illustrator 16.0.0, SVG Export Plug-In . SVG Version: 6.00 Build 0)  -->
<!DOCTYPE svg PUBLIC "-//W3C//DTD SVG 1.1//EN" "http://www.w3.org/Graphics/SVG/1.1/DTD/svg11.dtd">
<svg version="1.1" id="Capa_1" xmlns="http://www.w3.org/2000/svg" xmlns:xlink="http://www.w3.org/1999/xlink" x="0px" y="0px"
	 width="155.126px" height="155.129px" viewBox="0 0 155.126 155.129" enable-background="new 0 0 155.126 155.129"
	 xml:space="preserve">
<g>
	<g>
		<path fill="#BE8FC0" d="M151.806,151.807H28.573c-13.947,0-25.252-11.307-25.252-25.252V3.322L126.55,3.323
			c13.951,0,25.256,11.307,25.256,25.253V151.807z"/>
		<path fill="#BE8FC0" d="M151.806,155.128H28.573C12.817,155.128,0,142.31,0,126.555V3.322c0-0.881,0.35-1.726,0.973-2.348
			C1.595,0.351,2.44,0.001,3.321,0.001L126.55,0.002c15.758,0,28.576,12.818,28.576,28.574v123.231
			C155.126,153.641,153.64,155.128,151.806,155.128z M6.642,6.643v119.912c0,12.093,9.838,21.931,21.931,21.931h119.912V28.576
			c0-12.093-9.84-21.932-21.935-21.932L6.642,6.643z"/>
	</g>
	<g>
		<path fill="#FFFFFF" d="M60.462,126.047c-14.262,0-25.865-11.603-25.865-25.865c0-14.261,11.603-25.863,25.865-25.863
			c14.262,0,25.866,11.603,25.866,25.863C86.328,114.444,74.725,126.047,60.462,126.047z M60.462,80.219
			c-11.008,0-19.963,8.955-19.963,19.963c0,11.009,8.956,19.965,19.963,19.965c11.008,0,19.964-8.956,19.964-19.965
			C80.427,89.174,71.471,80.219,60.462,80.219z"/>
		<path fill="#FFFFFF" d="M73.201,103.132c-1.629,0-2.951-1.32-2.951-2.95c0-5.397-4.391-9.788-9.788-9.788
			c-1.629,0-2.951-1.32-2.951-2.95s1.321-2.95,2.951-2.95c8.651,0,15.689,7.038,15.689,15.688
			C76.151,101.812,74.83,103.132,73.201,103.132z"/>
		<path fill="#FFFFFF" d="M103.237,79.934c-9.758,0-17.698-7.939-17.698-17.699c0-9.759,7.94-17.697,17.698-17.697
			c9.762,0,17.703,7.938,17.703,17.697C120.94,71.994,112.999,79.934,103.237,79.934z M103.237,50.438
			c-6.505,0-11.797,5.292-11.797,11.797c0,6.506,5.292,11.799,11.797,11.799c6.508,0,11.802-5.293,11.802-11.799
			C115.039,55.729,109.745,50.438,103.237,50.438z"/>
		<path fill="#FFFFFF" d="M110.278,66.349c-1.63,0-2.951-1.32-2.951-2.95c0-2.895-2.354-5.25-5.246-5.25
			c-1.63,0-2.951-1.32-2.951-2.95s1.321-2.95,2.951-2.95c6.146,0,11.147,5.002,11.147,11.15
			C113.229,65.028,111.907,66.349,110.278,66.349z"/>
		<path fill="#FFFFFF" d="M74.798,48.986c-5.072,0-9.199-4.128-9.199-9.202c0-5.073,4.126-9.201,9.199-9.201
			c5.075,0,9.204,4.128,9.204,9.201C84.002,44.858,79.873,48.986,74.798,48.986z M74.798,36.484c-1.818,0-3.297,1.48-3.297,3.3
			c0,1.82,1.479,3.301,3.297,3.301c1.821,0,3.302-1.481,3.302-3.301C78.101,37.964,76.619,36.484,74.798,36.484z"/>
		<path fill="#FFFFFF" d="M57.25,67.346c-4.437,0-8.047-3.61-8.047-8.048s3.61-8.047,8.047-8.047c4.437,0,8.046,3.609,8.046,8.047
			S61.687,67.346,57.25,67.346z M57.25,57.151c-1.184,0-2.146,0.963-2.146,2.146s0.962,2.147,2.146,2.147
			c1.183,0,2.145-0.964,2.145-2.147S58.434,57.151,57.25,57.151z"/>
		<path fill="#FFFFFF" d="M107.229,109.441c-5.773,0-10.471-4.697-10.471-10.471c0-5.772,4.697-10.469,10.471-10.469
			c5.775,0,10.474,4.696,10.474,10.469C117.703,104.744,113.005,109.441,107.229,109.441z M107.229,94.402
			c-2.52,0-4.569,2.05-4.569,4.568c0,2.52,2.05,4.57,4.569,4.57c2.521,0,4.572-2.051,4.572-4.57
			C111.802,96.452,109.751,94.402,107.229,94.402z"/>
	</g>
</g>
</svg>
