<?xml version="1.0" encoding="utf-8"?>
<!-- Generator: Adobe Illustrator 16.0.0, SVG Export Plug-In . SVG Version: 6.00 Build 0)  -->
<!DOCTYPE svg PUBLIC "-//W3C//DTD SVG 1.1//EN" "http://www.w3.org/Graphics/SVG/1.1/DTD/svg11.dtd">
<svg version="1.1" id="Capa_1" xmlns="http://www.w3.org/2000/svg" xmlns:xlink="http://www.w3.org/1999/xlink" x="0px" y="0px"
	 width="155.126px" height="155.129px" viewBox="0 0 155.126 155.129" enable-background="new 0 0 155.126 155.129"
	 xml:space="preserve">
<g>
	<g>
		<path fill="#BE8FC0" d="M151.805,151.808H28.573c-13.948,0-25.252-11.309-25.252-25.256V3.322l123.229,0.001
			c13.946,0,25.254,11.306,25.254,25.254V151.808z"/>
		<path fill="#BE8FC0" d="M151.805,155.129H28.573C12.818,155.129,0,142.309,0,126.552V3.322c0-0.881,0.35-1.726,0.973-2.348
			C1.596,0.351,2.44,0.001,3.321,0.001l123.229,0.001c15.756,0,28.575,12.818,28.575,28.575v123.23
			C155.126,153.642,153.639,155.129,151.805,155.129z M6.642,6.643v119.909c0,12.095,9.838,21.935,21.931,21.935h119.91V28.577
			c0-12.094-9.839-21.933-21.933-21.933L6.642,6.643z"/>
	</g>
	<path fill="#FFFFFF" d="M86.579,34.168c4.658,0,8.435,1.129,8.435,5.786c0,4.654-3.553,5.786-8.208,5.786v-0.015l-0.227,0.015
		h0.227v64.509c0,6.547-3.088,11.859-9.636,11.859c-6.55,0-9.636-5.313-9.636-11.859V45.74h0.1c0,0-0.025,0-0.1,0
		c-4.657,0-8.208-1.132-8.208-5.786c0-4.657,3.775-5.786,8.432-5.786H86.579 M86.579,28.267H67.758
		c-13.299,0-14.333,8.945-14.333,11.687c0,2.872,0.918,8.857,8.208,10.947v59.348c0,10.623,6.244,17.761,15.537,17.761
		c9.293,0,15.537-7.138,15.537-17.761V50.901c7.289-2.09,8.208-8.075,8.208-10.947C100.915,37.212,99.881,28.267,86.579,28.267
		L86.579,28.267z"/>
	<rect x="64.197" y="60.125" fill="#FFFFFF" width="12.417" height="5.901"/>
	<rect x="64.197" y="77.546" fill="#FFFFFF" width="12.417" height="5.901"/>
	<path fill="#FFFFFF" d="M84.853,101.846c-3.14,0-6.403-1.409-9.19-4.192c-1.087-1.088-2.45-1.602-3.954-1.478
		c-1.651,0.133-3.375,1.022-4.855,2.504l-4.175-4.17c2.47-2.473,5.508-3.971,8.556-4.216c3.232-0.26,6.285,0.871,8.599,3.186
		c1.094,1.094,4.936,4.4,8.356,0.982l4.17,4.176C90.211,100.784,87.578,101.846,84.853,101.846z"/>
</g>
</svg>
