<?xml version="1.0" encoding="utf-8"?>
<!-- Generator: Adobe Illustrator 16.0.0, SVG Export Plug-In . SVG Version: 6.00 Build 0)  -->
<!DOCTYPE svg PUBLIC "-//W3C//DTD SVG 1.1//EN" "http://www.w3.org/Graphics/SVG/1.1/DTD/svg11.dtd">
<svg version="1.1" id="Capa_1" xmlns="http://www.w3.org/2000/svg" xmlns:xlink="http://www.w3.org/1999/xlink" x="0px" y="0px"
	 width="155.126px" height="155.129px" viewBox="0 0 155.126 155.129" enable-background="new 0 0 155.126 155.129"
	 xml:space="preserve">
<g>
	<g>
		<path fill="#BE8FC0" d="M151.805,151.806H28.575c-13.949,0-25.254-11.305-25.254-25.252V3.323h123.228
			c13.951,0,25.256,11.307,25.256,25.252V151.806z"/>
		<path fill="#BE8FC0" d="M151.805,155.127H28.575C12.819,155.127,0,142.309,0,126.554V3.323c0-1.834,1.487-3.321,3.321-3.321
			h123.228c15.757,0,28.577,12.818,28.577,28.573v123.23C155.126,153.64,153.639,155.127,151.805,155.127z M6.642,6.644v119.91
			c0,12.093,9.839,21.931,21.933,21.931h119.908V28.575c0-12.093-9.84-21.932-21.935-21.932H6.642z"/>
	</g>
	<g>
		<path fill="#FFFFFF" d="M77.567,50.631l9.957,16.068l18.358,4.505L93.679,85.64l1.391,18.854l-17.502-7.146l-17.503,7.146
			l1.389-18.852l-12.21-14.438l18.36-4.507L77.567,50.631 M77.567,44.729c-2.042,0-3.938,1.056-5.015,2.791l-8.695,14.021
			l-16.021,3.933c-1.984,0.486-3.575,1.965-4.206,3.907c-0.631,1.943-0.212,4.074,1.106,5.634l10.654,12.597L54.18,104.06
			c-0.15,2.037,0.764,4.007,2.416,5.207c1.024,0.744,2.242,1.128,3.469,1.128c0.753,0,1.511-0.145,2.23-0.438l15.272-6.235
			l15.271,6.235c0.719,0.294,1.477,0.438,2.23,0.438c1.228,0,2.445-0.384,3.469-1.128c1.652-1.2,2.566-3.17,2.416-5.207
			l-1.213-16.45l10.648-12.596c1.318-1.56,1.736-3.69,1.105-5.633c-0.631-1.943-2.223-3.421-4.206-3.907l-16.019-3.931
			l-8.688-14.021C81.508,45.787,79.61,44.73,77.567,44.729L77.567,44.729L77.567,44.729z"/>
		
			<rect x="111.562" y="91.16" transform="matrix(0.9029 0.4299 -0.4299 0.9029 51.8466 -41.2957)" fill="#FFFFFF" width="11.532" height="5.901"/>
		
			<rect x="46.35" y="43.025" transform="matrix(0.6228 0.7824 -0.7824 0.6228 55.6752 -23.5226)" fill="#FFFFFF" width="11.764" height="5.902"/>
		
			<rect x="34.63" y="88.417" transform="matrix(0.4297 0.903 -0.903 0.4297 106.4805 19.7819)" fill="#FFFFFF" width="5.901" height="11.531"/>
		
			<rect x="99.696" y="40.828" transform="matrix(0.7828 0.6223 -0.6223 0.7828 51.3582 -53.7291)" fill="#FFFFFF" width="5.901" height="11.756"/>
	</g>
</g>
</svg>
