<?xml version="1.0" encoding="utf-8"?>
<!-- Generator: Adobe Illustrator 16.0.0, SVG Export Plug-In . SVG Version: 6.00 Build 0)  -->
<!DOCTYPE svg PUBLIC "-//W3C//DTD SVG 1.1//EN" "http://www.w3.org/Graphics/SVG/1.1/DTD/svg11.dtd">
<svg version="1.1" id="Capa_1" xmlns="http://www.w3.org/2000/svg" xmlns:xlink="http://www.w3.org/1999/xlink" x="0px" y="0px"
	 width="155.126px" height="155.129px" viewBox="0 0 155.126 155.129" enable-background="new 0 0 155.126 155.129"
	 xml:space="preserve">
<g>
	<g>
		<path fill="#742C87" d="M151.806,126.554c0,13.945-11.307,25.252-25.256,25.252H3.319V28.576
			c0-13.946,11.308-25.253,25.255-25.253h123.231V126.554z"/>
		<path fill="#742C87" d="M126.55,155.127H3.319c-1.834,0-3.32-1.487-3.32-3.321V28.576c0-15.756,12.818-28.574,28.575-28.574
			h123.231c1.834,0,3.321,1.487,3.321,3.321v123.231C155.127,142.309,142.307,155.127,126.55,155.127z M6.641,148.484H126.55
			c12.095,0,21.935-9.838,21.935-21.931V6.644H28.574c-12.094,0-21.934,9.839-21.934,21.932V148.484z"/>
	</g>
	<g>
		<path fill="#FFFFFF" d="M93.308,130.607h-64.61c-1.629,0-2.95-1.32-2.95-2.95V76.496c0-0.581,0.171-1.148,0.492-1.632
			L38.066,57.05v-9.622c0-1.629,1.321-2.951,2.95-2.951h40.084c1.63,0,2.95,1.321,2.95,2.951v9.629l11.722,17.817
			c0.316,0.482,0.485,1.046,0.485,1.622v51.161C96.258,129.287,94.938,130.607,93.308,130.607z M31.648,124.707h58.709V77.38
			L78.636,59.562c-0.316-0.481-0.485-1.045-0.485-1.622v-7.562H43.968v7.562c0,0.581-0.172,1.148-0.493,1.632L31.648,77.386V124.707
			z"/>
		<rect x="28.697" y="77.325" fill="#FFFFFF" width="64.61" height="5.902"/>
		<rect x="28.697" y="109.303" fill="#FFFFFF" width="64.61" height="5.9"/>
		<g>
			<polygon fill="#FFFFFF" points="63.982,93.416 63.982,87.342 57.905,87.342 57.905,93.416 51.835,93.416 51.835,99.49 
				57.905,99.49 57.905,105.564 63.982,105.564 63.982,99.49 70.057,99.49 70.057,93.416 			"/>
		</g>
		<path fill="#FFFFFF" d="M82.093,49.652H39.915c-5.163,0-9.364-4.201-9.364-9.363v-6.068c0-5.163,4.201-9.363,9.364-9.363h42.178
			c5.161,0,9.36,4.201,9.36,9.363v6.068C91.453,45.452,87.254,49.652,82.093,49.652z M39.915,30.759
			c-1.909,0-3.463,1.553-3.463,3.462v6.068c0,1.909,1.554,3.462,3.463,3.462h42.178c1.907,0,3.46-1.553,3.46-3.462v-6.068
			c0-1.909-1.553-3.462-3.46-3.462H39.915z"/>
		<path fill="#FFFFFF" d="M119.021,130.607h-2.121c-6.17,0-11.188-5.02-11.188-11.19V93.49c0-6.17,5.019-11.19,11.188-11.19h2.121
			c6.172,0,11.192,5.021,11.192,11.192v25.925C130.213,125.588,125.192,130.607,119.021,130.607z M116.899,88.202
			c-2.916,0-5.288,2.372-5.288,5.288v25.927c0,2.917,2.372,5.29,5.288,5.29h2.121c2.918,0,5.292-2.373,5.292-5.29V93.492
			c0-2.917-2.374-5.29-5.292-5.29H116.899z"/>
		<rect x="108.661" y="103.505" fill="#FFFFFF" width="18.602" height="5.9"/>
	</g>
</g>
</svg>
