<?xml version="1.0" encoding="utf-8"?>
<!-- Generator: Adobe Illustrator 16.0.0, SVG Export Plug-In . SVG Version: 6.00 Build 0)  -->
<!DOCTYPE svg PUBLIC "-//W3C//DTD SVG 1.1//EN" "http://www.w3.org/Graphics/SVG/1.1/DTD/svg11.dtd">
<svg version="1.1" id="Capa_1" xmlns="http://www.w3.org/2000/svg" xmlns:xlink="http://www.w3.org/1999/xlink" x="0px" y="0px"
	 width="155.126px" height="155.129px" viewBox="0 0 155.126 155.129" enable-background="new 0 0 155.126 155.129"
	 xml:space="preserve">
<g>
	<g>
		<path fill="#742C87" d="M151.805,126.552c0,13.947-11.307,25.256-25.253,25.256L3.321,151.806V28.574
			c0-13.947,11.307-25.253,25.253-25.253h123.23V126.552z"/>
		<path fill="#742C87" d="M126.552,155.129L126.552,155.129L3.321,155.127c-1.834,0-3.321-1.487-3.321-3.321V28.574
			C0,12.818,12.818,0,28.574,0h123.23c1.834,0,3.321,1.487,3.321,3.321v123.231C155.126,142.309,142.308,155.129,126.552,155.129z
			 M6.642,148.484l119.91,0.002c12.094,0,21.932-9.84,21.932-21.935V6.642H28.574c-12.094,0-21.933,9.839-21.933,21.933V148.484z"/>
	</g>
	<path fill="#FFFFFF" d="M65.909,110.656c-0.783,0-1.533-0.311-2.086-0.864L44.596,90.564c-0.553-0.553-0.864-1.304-0.864-2.086
		s0.311-1.533,0.864-2.086l50.941-50.938c1.152-1.152,3.02-1.152,4.172,0l19.226,19.222c0.554,0.553,0.864,1.304,0.864,2.086
		c0,0.782-0.311,1.533-0.864,2.086l-50.939,50.942C67.442,110.346,66.691,110.656,65.909,110.656z M50.854,88.479l15.054,15.055
		l46.767-46.77l-15.053-15.05L50.854,88.479z"/>
	<path fill="#FFFFFF" d="M115.052,57.915c-0.782,0-1.532-0.311-2.086-0.864l-15.63-15.627c-1.152-1.152-1.152-3.02-0.001-4.172
		l10.788-10.791c1.107-1.107,3.067-1.107,4.173,0l15.627,15.629c1.152,1.152,1.152,3.02,0.001,4.172l-10.785,10.789
		C116.585,57.604,115.835,57.915,115.052,57.915z M103.595,39.337l11.456,11.455l6.614-6.616L110.21,32.72L103.595,39.337z"/>
	<path fill="#FFFFFF" d="M50.652,115.607c-0.755,0-1.51-0.288-2.086-0.863l-8.925-8.921c-0.553-0.554-0.864-1.304-0.864-2.087
		c0-0.782,0.311-1.533,0.864-2.086l10.107-10.108c0.553-0.554,1.304-0.864,2.086-0.864c0,0,0,0,0,0c0.782,0,1.533,0.311,2.086,0.864
		l8.922,8.926c1.151,1.152,1.151,3.021,0,4.172l-10.104,10.104C52.162,115.319,51.407,115.607,50.652,115.607z M45.899,103.735
		l4.752,4.75l5.933-5.933l-4.75-4.752L45.899,103.735z"/>
	
		<rect x="101.767" y="33.412" transform="matrix(0.7071 0.7071 -0.7071 0.7071 60.2808 -72.8051)" fill="#FFFFFF" width="32.514" height="5.901"/>
	
		<rect x="52.06" y="85.34" transform="matrix(0.7071 0.7071 -0.7071 0.7071 81.7842 -20.8787)" fill="#FFFFFF" width="28.073" height="5.9"/>
	
		<rect x="62.184" y="72.365" transform="matrix(0.707 0.7072 -0.7072 0.707 73.5757 -26.9673)" fill="#FFFFFF" width="14.302" height="5.901"/>
	
		<rect x="70.174" y="64.376" transform="matrix(0.7072 0.7071 -0.7071 0.7072 70.2469 -34.9567)" fill="#FFFFFF" width="14.301" height="5.901"/>
	
		<rect x="78.161" y="56.388" transform="matrix(0.7072 0.707 -0.707 0.7072 66.9339 -42.9429)" fill="#FFFFFF" width="14.303" height="5.901"/>
	
		<rect x="33.087" y="103.971" transform="matrix(0.7072 0.707 -0.707 0.7072 94.174 9.1521)" fill="#FFFFFF" width="5.901" height="28.605"/>
</g>
</svg>
