<?xml version="1.0" encoding="utf-8"?>
<!-- Generator: Adobe Illustrator 16.0.0, SVG Export Plug-In . SVG Version: 6.00 Build 0)  -->
<!DOCTYPE svg PUBLIC "-//W3C//DTD SVG 1.1//EN" "http://www.w3.org/Graphics/SVG/1.1/DTD/svg11.dtd">
<svg version="1.1" id="Capa_1" xmlns="http://www.w3.org/2000/svg" xmlns:xlink="http://www.w3.org/1999/xlink" x="0px" y="0px"
	 width="155.126px" height="155.129px" viewBox="0 0 155.126 155.129" enable-background="new 0 0 155.126 155.129"
	 xml:space="preserve">
<g>
	<g>
		<path fill="#742C87" d="M151.804,126.554c0,13.947-11.307,25.252-25.255,25.252H3.321V28.576c0-13.946,11.303-25.253,25.25-25.253
			h123.232V126.554z"/>
		<path fill="#742C87" d="M126.549,155.127H3.321c-1.834,0-3.32-1.487-3.32-3.321V28.576c0-15.756,12.816-28.574,28.57-28.574
			h123.232c1.834,0,3.321,1.487,3.321,3.321v123.231C155.125,142.309,142.306,155.127,126.549,155.127z M6.643,148.484h119.906
			c12.095,0,21.934-9.838,21.934-21.931V6.644H28.571c-12.092,0-21.929,9.839-21.929,21.932V148.484z"/>
	</g>
	<g>
		<g>
			<polygon fill="#FFFFFF" points="81.785,50.137 81.785,41.282 72.928,41.282 72.928,50.137 64.072,50.137 64.072,58.996 
				72.928,58.996 72.928,67.852 81.785,67.852 81.785,58.996 90.641,58.996 90.641,50.137 			"/>
		</g>
		<path fill="#FFFFFF" d="M116.256,130.216H38.457c-1.629,0-2.95-1.32-2.95-2.95v-99.84c0-1.629,1.321-2.951,2.95-2.951h77.799
			c1.63,0,2.95,1.321,2.95,2.951v99.84C119.206,128.896,117.886,130.216,116.256,130.216z M41.408,124.315h71.897V30.376H41.408
			V124.315z"/>
		<rect x="53.658" y="78.344" fill="#FFFFFF" width="47.394" height="5.9"/>
		<rect x="53.658" y="92.93" fill="#FFFFFF" width="47.394" height="5.902"/>
		<rect x="53.658" y="107.518" fill="#FFFFFF" width="47.394" height="5.9"/>
	</g>
</g>
</svg>
